<svg width="630" height="492" viewBox="0 0 630 492" fill="none" xmlns="http://www.w3.org/2000/svg">
<rect width="630" height="492" rx="20" fill="#FFF0D7"/>
<path d="M54.624 50.256C57.248 50.8 58.624 53.36 58.624 55.76C58.624 58.928 56.288 62 52.064 62H42.976V39.952H51.36C55.104 39.952 57.44 42.192 57.44 45.616C57.44 47.44 56.768 49.424 54.624 50.256ZM54.144 45.968C54.144 44.24 53.184 42.96 51.296 42.96H46.272V49.04H51.36C53.184 49.04 54.144 47.76 54.144 45.968ZM46.272 58.992H51.424C53.984 58.992 55.328 57.36 55.328 55.44C55.328 53.648 54.144 51.856 51.584 51.856H46.272V58.992ZM76.7955 54.448C76.7955 54.864 76.7635 55.312 76.7315 55.792H64.8275C65.2435 58.224 67.0355 59.472 69.4355 59.472C71.1955 59.472 72.8275 58.672 73.6595 57.296L76.1555 58.544C74.8435 61.04 72.1555 62.384 69.3075 62.384C64.9875 62.384 61.5955 59.216 61.5955 54.48C61.5955 49.744 65.0515 46.672 69.3075 46.672C73.5635 46.672 76.7955 49.744 76.7955 54.448ZM64.8595 53.264H73.6595C73.3395 50.928 71.6435 49.584 69.3395 49.584C67.0355 49.584 65.3075 50.768 64.8595 53.264ZM87.533 62.384C83.213 62.384 79.469 59.248 79.469 54.512C79.469 49.776 83.213 46.672 87.533 46.672C89.965 46.672 92.045 47.664 93.357 49.232L91.277 51.184C90.413 50.224 89.101 49.616 87.597 49.616C84.813 49.616 82.605 51.664 82.605 54.512C82.605 57.36 84.813 59.44 87.597 59.44C89.101 59.44 90.413 58.832 91.277 57.872L93.357 59.824C92.045 61.392 89.965 62.384 87.533 62.384ZM103.279 62.384C99.0225 62.384 95.4385 59.248 95.4385 54.512C95.4385 49.776 99.0225 46.672 103.279 46.672C107.535 46.672 111.151 49.776 111.151 54.512C111.151 59.248 107.535 62.384 103.279 62.384ZM103.279 59.44C105.839 59.44 108.015 57.424 108.015 54.512C108.015 51.632 105.839 49.616 103.279 49.616C100.719 49.616 98.5745 51.632 98.5745 54.512C98.5745 57.424 100.719 59.44 103.279 59.44ZM132.691 46.672C136.435 46.672 138.451 49.2 138.451 53.456V62H135.283V53.616C135.283 51.184 134.003 49.68 131.987 49.68C129.523 49.648 128.243 51.408 128.243 54.544V62H125.075V53.616C125.075 51.184 123.795 49.68 121.939 49.68C119.987 49.68 118.003 50.928 118.003 53.968V62H114.867V47.056H118.003V49.52C118.611 47.76 120.627 46.672 122.675 46.672C124.851 46.672 126.675 47.824 127.571 49.808C128.851 47.216 131.187 46.672 132.691 46.672ZM157.202 54.448C157.202 54.864 157.17 55.312 157.138 55.792H145.234C145.65 58.224 147.442 59.472 149.842 59.472C151.602 59.472 153.234 58.672 154.066 57.296L156.562 58.544C155.25 61.04 152.562 62.384 149.714 62.384C145.394 62.384 142.002 59.216 142.002 54.48C142.002 49.744 145.458 46.672 149.714 46.672C153.97 46.672 157.202 49.744 157.202 54.448ZM145.266 53.264H154.066C153.746 50.928 152.05 49.584 149.746 49.584C147.442 49.584 145.714 50.768 145.266 53.264ZM180.452 49.296V47.056H183.588V62H180.452V59.472C179.492 61.2 177.444 62.384 175.14 62.384C171.236 62.384 167.876 59.12 167.876 54.512C167.876 50.064 171.044 46.672 175.268 46.672C177.444 46.672 179.492 47.6 180.452 49.296ZM175.684 59.44C178.18 59.44 180.42 57.328 180.42 54.512C180.42 51.632 178.02 49.616 175.62 49.616C173.06 49.616 171.044 51.856 171.044 54.512C171.044 57.2 173.06 59.44 175.684 59.44ZM196.305 46.672C200.081 46.672 202.321 49.2 202.289 53.456V62H199.153V53.648C199.153 51.216 197.681 49.744 195.761 49.744C193.809 49.744 191.441 50.864 191.441 53.968V62H188.305V47.056H191.441V49.36C192.305 47.504 194.705 46.672 196.305 46.672ZM229.014 54.448C229.014 54.864 228.982 55.312 228.95 55.792H217.046C217.462 58.224 219.254 59.472 221.654 59.472C223.414 59.472 225.046 58.672 225.878 57.296L228.374 58.544C227.062 61.04 224.374 62.384 221.526 62.384C217.206 62.384 213.814 59.216 213.814 54.48C213.814 49.744 217.27 46.672 221.526 46.672C225.782 46.672 229.014 49.744 229.014 54.448ZM217.078 53.264H225.878C225.558 50.928 223.862 49.584 221.558 49.584C219.254 49.584 217.526 50.768 217.078 53.264ZM244.328 49.296V47.056H247.464V69.264H244.328V59.792C243.336 61.488 241.256 62.384 239.144 62.384C235.112 62.384 231.752 59.312 231.752 54.544C231.752 49.808 235.112 46.672 239.176 46.672C241.192 46.672 243.336 47.6 244.328 49.296ZM239.528 59.44C241.832 59.44 244.296 57.584 244.296 54.576C244.296 51.568 242.056 49.616 239.528 49.616C236.968 49.616 234.888 51.76 234.888 54.576C234.888 57.392 236.968 59.44 239.528 59.44ZM262.805 55.184V47.056H265.941V62H262.805V59.728C261.941 61.552 259.541 62.384 257.973 62.384C254.197 62.384 251.924 59.856 251.957 55.6V47.056H255.093V55.504C255.093 57.968 256.565 59.44 258.485 59.44C260.437 59.44 262.805 58.288 262.805 55.184ZM272.185 43.632C271.033 43.632 270.041 42.768 270.041 41.616C270.041 40.464 271.033 39.6 272.185 39.6C273.369 39.6 274.329 40.464 274.329 41.616C274.329 42.768 273.369 43.632 272.185 43.632ZM273.753 62H270.617V47.056H273.753V62ZM286.781 46.672C290.813 46.672 294.205 49.808 294.205 54.544C294.205 59.312 290.845 62.384 286.781 62.384C284.669 62.384 282.589 61.488 281.597 59.792V69.264H278.461V47.056H281.597V49.296C282.589 47.6 284.765 46.672 286.781 46.672ZM286.397 59.44C288.989 59.44 291.037 57.392 291.037 54.576C291.037 51.76 288.989 49.616 286.397 49.616C283.901 49.616 281.629 51.568 281.629 54.576C281.629 57.584 284.093 59.44 286.397 59.44ZM315.754 46.672C319.498 46.672 321.514 49.2 321.514 53.456V62H318.346V53.616C318.346 51.184 317.066 49.68 315.05 49.68C312.586 49.648 311.306 51.408 311.306 54.544V62H308.138V53.616C308.138 51.184 306.858 49.68 305.002 49.68C303.05 49.68 301.066 50.928 301.066 53.968V62H297.93V47.056H301.066V49.52C301.674 47.76 303.69 46.672 305.738 46.672C307.914 46.672 309.738 47.824 310.634 49.808C311.914 47.216 314.25 46.672 315.754 46.672ZM340.264 54.448C340.264 54.864 340.232 55.312 340.2 55.792H328.296C328.712 58.224 330.504 59.472 332.904 59.472C334.664 59.472 336.296 58.672 337.128 57.296L339.624 58.544C338.312 61.04 335.624 62.384 332.776 62.384C328.456 62.384 325.064 59.216 325.064 54.48C325.064 49.744 328.52 46.672 332.776 46.672C337.032 46.672 340.264 49.744 340.264 54.448ZM328.328 53.264H337.128C336.808 50.928 335.112 49.584 332.808 49.584C330.504 49.584 328.776 50.768 328.328 53.264ZM351.93 46.672C355.706 46.672 357.946 49.2 357.914 53.456V62H354.778V53.648C354.778 51.216 353.306 49.744 351.386 49.744C349.434 49.744 347.066 50.864 347.066 53.968V62H343.93V47.056H347.066V49.36C347.93 47.504 350.33 46.672 351.93 46.672ZM366.595 47.056H369.795V49.68H366.595V62H363.459V49.68H360.771V47.056H363.459V41.456H366.595V47.056ZM389.062 46.672C393.094 46.672 396.486 49.808 396.486 54.544C396.486 59.312 393.126 62.384 389.062 62.384C386.95 62.384 384.87 61.488 383.878 59.792V69.264H380.742V47.056H383.878V49.296C384.87 47.6 387.046 46.672 389.062 46.672ZM388.678 59.44C391.27 59.44 393.318 57.392 393.318 54.576C393.318 51.76 391.27 49.616 388.678 49.616C386.182 49.616 383.91 51.568 383.91 54.576C383.91 57.584 386.374 59.44 388.678 59.44ZM407.571 46.672C408.595 46.672 409.651 46.928 410.131 47.216L409.587 50.192C408.755 49.808 407.987 49.68 407.379 49.68C404.659 49.68 403.379 52.592 403.379 56.624V62H400.211V47.056H403.379V50.416C404.147 47.792 405.651 46.672 407.571 46.672ZM419.185 62.384C414.929 62.384 411.345 59.248 411.345 54.512C411.345 49.776 414.929 46.672 419.185 46.672C423.441 46.672 427.057 49.776 427.057 54.512C427.057 59.248 423.441 62.384 419.185 62.384ZM419.185 59.44C421.745 59.44 423.921 57.424 423.921 54.512C423.921 51.632 421.745 49.616 419.185 49.616C416.625 49.616 414.481 51.632 414.481 54.512C414.481 57.424 416.625 59.44 419.185 59.44ZM436.159 57.936L440.511 47.056H443.903L437.663 62H434.687L428.447 47.056H431.807L436.159 57.936ZM448.185 43.632C447.033 43.632 446.041 42.768 446.041 41.616C446.041 40.464 447.033 39.6 448.185 39.6C449.369 39.6 450.329 40.464 450.329 41.616C450.329 42.768 449.369 43.632 448.185 43.632ZM449.753 62H446.617V47.056H449.753V62ZM466.109 49.264V38.928H469.245V62H466.109V59.76C465.117 61.456 462.973 62.384 460.957 62.384C456.893 62.384 453.533 59.248 453.533 54.512C453.533 49.744 456.893 46.672 460.925 46.672C463.037 46.672 465.117 47.568 466.109 49.264ZM461.309 59.44C463.837 59.44 466.077 57.488 466.077 54.48C466.077 51.472 463.613 49.616 461.309 49.616C458.749 49.616 456.669 51.664 456.669 54.48C456.669 57.264 458.749 59.44 461.309 59.44ZM488.202 54.448C488.202 54.864 488.17 55.312 488.138 55.792H476.234C476.65 58.224 478.442 59.472 480.842 59.472C482.602 59.472 484.234 58.672 485.066 57.296L487.562 58.544C486.25 61.04 483.562 62.384 480.714 62.384C476.394 62.384 473.002 59.216 473.002 54.48C473.002 49.744 476.458 46.672 480.714 46.672C484.97 46.672 488.202 49.744 488.202 54.448ZM476.266 53.264H485.066C484.746 50.928 483.05 49.584 480.746 49.584C478.442 49.584 476.714 50.768 476.266 53.264ZM503.515 49.264V38.928H506.651V62H503.515V59.76C502.523 61.456 500.379 62.384 498.363 62.384C494.299 62.384 490.939 59.248 490.939 54.512C490.939 49.744 494.299 46.672 498.331 46.672C500.443 46.672 502.523 47.568 503.515 49.264ZM498.715 59.44C501.243 59.44 503.483 57.488 503.483 54.48C503.483 51.472 501.019 49.616 498.715 49.616C496.155 49.616 494.075 51.664 494.075 54.48C494.075 57.264 496.155 59.44 498.715 59.44ZM49.216 102.384C44.96 102.384 41.376 99.248 41.376 94.512C41.376 89.776 44.96 86.672 49.216 86.672C53.472 86.672 57.088 89.776 57.088 94.512C57.088 99.248 53.472 102.384 49.216 102.384ZM49.216 99.44C51.776 99.44 53.952 97.424 53.952 94.512C53.952 91.632 51.776 89.616 49.216 89.616C46.656 89.616 44.512 91.632 44.512 94.512C44.512 97.424 46.656 99.44 49.216 99.44ZM68.8048 86.672C72.5808 86.672 74.8208 89.2 74.7888 93.456V102H71.6528V93.648C71.6528 91.216 70.1808 89.744 68.2608 89.744C66.3088 89.744 63.9408 90.864 63.9408 93.968V102H60.8048V87.056H63.9408V89.36C64.8048 87.504 67.2048 86.672 68.8048 86.672ZM94.1223 102.384C89.8663 102.384 86.2823 99.248 86.2823 94.512C86.2823 89.776 89.8663 86.672 94.1223 86.672C98.3783 86.672 101.994 89.776 101.994 94.512C101.994 99.248 98.3783 102.384 94.1223 102.384ZM94.1223 99.44C96.6823 99.44 98.8583 97.424 98.8583 94.512C98.8583 91.632 96.6823 89.616 94.1223 89.616C91.5623 89.616 89.4183 91.632 89.4183 94.512C89.4183 97.424 91.5623 99.44 94.1223 99.44ZM116.367 95.184V87.056H119.503V102H116.367V99.728C115.503 101.552 113.103 102.384 111.535 102.384C107.759 102.384 105.487 99.856 105.519 95.6V87.056H108.655V95.504C108.655 97.968 110.127 99.44 112.047 99.44C113.999 99.44 116.367 98.288 116.367 95.184ZM131.54 86.672C132.564 86.672 133.62 86.928 134.1 87.216L133.556 90.192C132.724 89.808 131.956 89.68 131.348 89.68C128.628 89.68 127.348 92.592 127.348 96.624V102H124.18V87.056H127.348V90.416C128.116 87.792 129.62 86.672 131.54 86.672ZM152.667 81.872H151.579C148.987 81.872 148.283 83.408 148.315 85.296V87.056H151.739V89.68H148.315V102H145.179V89.68H142.299V87.056H145.179V85.648C145.179 81.584 146.939 78.928 151.003 78.928H152.667V81.872ZM165.983 89.296V87.056H169.119V102H165.983V99.472C165.023 101.2 162.975 102.384 160.671 102.384C156.767 102.384 153.407 99.12 153.407 94.512C153.407 90.064 156.575 86.672 160.799 86.672C162.975 86.672 165.023 87.6 165.983 89.296ZM161.215 99.44C163.711 99.44 165.951 97.328 165.951 94.512C165.951 91.632 163.551 89.616 161.151 89.616C158.591 89.616 156.575 91.856 156.575 94.512C156.575 97.2 158.591 99.44 161.215 99.44ZM178.444 102.384C175.66 102.384 172.812 100.656 172.748 97.52H175.66C175.66 98.704 176.716 99.728 178.412 99.728C180.14 99.728 181.196 98.864 181.196 97.744C181.196 96.752 180.396 96.24 179.276 95.984L177.26 95.504C174.476 94.768 173.196 93.328 173.196 91.12C173.196 88.688 175.404 86.672 178.508 86.672C181.068 86.672 183.82 88.016 183.82 91.152H180.812C180.812 90.064 179.692 89.328 178.572 89.328C177.26 89.328 176.364 90.192 176.364 91.216C176.364 92.144 177.228 92.656 178.156 92.88L180.428 93.424C183.628 94.224 184.332 96.208 184.332 97.808C184.332 100.656 181.516 102.384 178.444 102.384ZM192.345 87.056H195.545V89.68H192.345V102H189.209V89.68H186.521V87.056H189.209V81.456H192.345V87.056ZM218.14 89.232V87.056H221.276V99.952C221.276 106.896 218.076 109.648 213.052 109.648C210.236 109.648 207.612 108.176 206.204 105.52L208.86 104.208C209.692 105.808 211.42 106.736 213.052 106.736C216.188 106.736 218.14 104.944 218.14 100.208V99.824C217.116 101.456 214.972 102.384 212.988 102.384C208.924 102.384 205.564 99.248 205.564 94.512C205.564 89.744 208.924 86.672 212.956 86.672C215.036 86.672 217.116 87.568 218.14 89.232ZM213.34 99.44C215.868 99.44 218.108 97.488 218.108 94.48C218.108 91.472 215.644 89.616 213.34 89.616C210.78 89.616 208.7 91.664 208.7 94.48C208.7 97.264 210.78 99.44 213.34 99.44ZM233.321 86.672C234.345 86.672 235.401 86.928 235.881 87.216L235.337 90.192C234.505 89.808 233.737 89.68 233.129 89.68C230.409 89.68 229.129 92.592 229.129 96.624V102H225.961V87.056H229.129V90.416C229.897 87.792 231.401 86.672 233.321 86.672ZM244.935 102.384C240.679 102.384 237.095 99.248 237.095 94.512C237.095 89.776 240.679 86.672 244.935 86.672C249.191 86.672 252.807 89.776 252.807 94.512C252.807 99.248 249.191 102.384 244.935 102.384ZM244.935 99.44C247.495 99.44 249.671 97.424 249.671 94.512C249.671 91.632 247.495 89.616 244.935 89.616C242.375 89.616 240.231 91.632 240.231 94.512C240.231 97.424 242.375 99.44 244.935 99.44ZM271.346 97.264L274.898 87.056H278.29L272.818 102H270.162L266.29 91.28L262.546 102H259.954L254.29 87.056H257.682L261.266 97.264L264.818 87.056H267.762L271.346 97.264ZM282.623 83.632C281.471 83.632 280.479 82.768 280.479 81.616C280.479 80.464 281.471 79.6 282.623 79.6C283.807 79.6 284.767 80.464 284.767 81.616C284.767 82.768 283.807 83.632 282.623 83.632ZM284.191 102H281.055V87.056H284.191V102ZM296.899 86.672C300.675 86.672 302.915 89.2 302.883 93.456V102H299.747V93.648C299.747 91.216 298.275 89.744 296.355 89.744C294.403 89.744 292.035 90.864 292.035 93.968V102H288.899V87.056H292.035V89.36C292.899 87.504 295.299 86.672 296.899 86.672ZM319.015 89.232V87.056H322.151V99.952C322.151 106.896 318.951 109.648 313.927 109.648C311.111 109.648 308.487 108.176 307.079 105.52L309.735 104.208C310.567 105.808 312.295 106.736 313.927 106.736C317.063 106.736 319.015 104.944 319.015 100.208V99.824C317.991 101.456 315.847 102.384 313.863 102.384C309.799 102.384 306.439 99.248 306.439 94.512C306.439 89.744 309.799 86.672 313.831 86.672C315.911 86.672 317.991 87.568 319.015 89.232ZM314.215 99.44C316.743 99.44 318.983 97.488 318.983 94.48C318.983 91.472 316.519 89.616 314.215 89.616C311.655 89.616 309.575 91.664 309.575 94.48C309.575 97.264 311.655 99.44 314.215 99.44ZM343.125 86.672C347.157 86.672 350.549 89.808 350.549 94.544C350.549 99.312 347.189 102.384 343.125 102.384C341.013 102.384 338.933 101.488 337.941 99.792V109.264H334.805V87.056H337.941V89.296C338.933 87.6 341.109 86.672 343.125 86.672ZM342.741 99.44C345.333 99.44 347.381 97.392 347.381 94.576C347.381 91.76 345.333 89.616 342.741 89.616C340.245 89.616 337.973 91.568 337.973 94.576C337.973 97.584 340.437 99.44 342.741 99.44ZM357.41 102H354.274V78.928H357.41V102ZM373.733 89.296V87.056H376.869V102H373.733V99.472C372.773 101.2 370.725 102.384 368.421 102.384C364.517 102.384 361.157 99.12 361.157 94.512C361.157 90.064 364.325 86.672 368.549 86.672C370.725 86.672 372.773 87.6 373.733 89.296ZM368.965 99.44C371.461 99.44 373.701 97.328 373.701 94.512C373.701 91.632 371.301 89.616 368.901 89.616C366.341 89.616 364.325 91.856 364.325 94.512C364.325 97.2 366.341 99.44 368.965 99.44ZM385.97 87.056H389.17V89.68H385.97V102H382.834V89.68H380.146V87.056H382.834V81.456H385.97V87.056ZM400.949 81.872H399.861C397.269 81.872 396.565 83.408 396.597 85.296V87.056H400.021V89.68H396.597V102H393.461V89.68H390.581V87.056H393.461V85.648C393.461 81.584 395.221 78.928 399.285 78.928H400.949V81.872ZM409.529 102.384C405.273 102.384 401.689 99.248 401.689 94.512C401.689 89.776 405.273 86.672 409.529 86.672C413.785 86.672 417.401 89.776 417.401 94.512C417.401 99.248 413.785 102.384 409.529 102.384ZM409.529 99.44C412.089 99.44 414.265 97.424 414.265 94.512C414.265 91.632 412.089 89.616 409.529 89.616C406.969 89.616 404.825 91.632 404.825 94.512C404.825 97.424 406.969 99.44 409.529 99.44ZM428.477 86.672C429.501 86.672 430.557 86.928 431.037 87.216L430.493 90.192C429.661 89.808 428.893 89.68 428.285 89.68C425.565 89.68 424.285 92.592 424.285 96.624V102H421.117V87.056H424.285V90.416C425.053 87.792 426.557 86.672 428.477 86.672ZM451.504 86.672C455.248 86.672 457.264 89.2 457.264 93.456V102H454.096V93.616C454.096 91.184 452.816 89.68 450.8 89.68C448.336 89.648 447.056 91.408 447.056 94.544V102H443.888V93.616C443.888 91.184 442.608 89.68 440.752 89.68C438.8 89.68 436.816 90.928 436.816 93.968V102H433.68V87.056H436.816V89.52C437.424 87.76 439.44 86.672 441.488 86.672C443.664 86.672 445.488 87.824 446.384 89.808C447.664 87.216 450 86.672 451.504 86.672ZM463.374 102.32C462.19 102.32 461.166 101.424 461.166 100.208C461.166 98.992 462.19 98.096 463.374 98.096C464.59 98.096 465.614 98.992 465.614 100.208C465.614 101.424 464.59 102.32 463.374 102.32Z" fill="#FEB538"/>
<rect x="388" y="408" width="202" height="44" rx="22" fill="#FEB538"/>
<path d="M428.078 426.824C428.078 428.008 427.614 428.776 426.686 429.128C427.273 429.245 427.747 429.576 428.11 430.12C428.483 430.664 428.67 431.229 428.67 431.816C428.67 432.712 428.377 433.469 427.79 434.088C427.203 434.696 426.419 435 425.438 435H420.926V423.976H425.086C426.003 423.976 426.729 424.232 427.262 424.744C427.806 425.256 428.078 425.949 428.078 426.824ZM422.43 428.552H425.086C425.555 428.552 425.918 428.392 426.174 428.072C426.43 427.752 426.558 427.352 426.558 426.872C426.558 426.392 426.409 426.019 426.11 425.752C425.822 425.485 425.427 425.352 424.926 425.352H422.43V428.552ZM425.326 429.864H422.43V433.608H425.374C425.897 433.608 426.318 433.432 426.638 433.08C426.969 432.717 427.134 432.291 427.134 431.8C427.134 431.32 426.963 430.877 426.622 430.472C426.281 430.067 425.849 429.864 425.326 429.864ZM431.645 430.68H436.285C436.199 430.061 435.949 429.576 435.533 429.224C435.127 428.861 434.621 428.68 434.013 428.68C433.383 428.68 432.85 428.861 432.413 429.224C431.986 429.576 431.73 430.061 431.645 430.68ZM437.725 431.24C437.725 431.517 437.719 431.709 437.709 431.816H431.645C431.73 432.435 431.991 432.931 432.429 433.304C432.877 433.667 433.421 433.848 434.061 433.848C434.519 433.848 434.941 433.747 435.325 433.544C435.709 433.341 436.002 433.059 436.205 432.696C436.343 432.749 436.557 432.835 436.845 432.952C437.133 433.059 437.335 433.133 437.453 433.176C437.143 433.816 436.679 434.307 436.061 434.648C435.442 434.989 434.759 435.16 434.013 435.16C432.925 435.16 432.013 434.797 431.277 434.072C430.551 433.347 430.189 432.403 430.189 431.24C430.189 430.077 430.551 429.144 431.277 428.44C432.013 427.725 432.925 427.368 434.013 427.368C435.09 427.368 435.975 427.725 436.669 428.44C437.373 429.144 437.725 430.077 437.725 431.24ZM440.231 434.072C439.463 433.336 439.079 432.392 439.079 431.24C439.079 430.088 439.463 429.155 440.231 428.44C440.999 427.725 441.933 427.368 443.031 427.368C444.215 427.368 445.175 427.768 445.911 428.568L444.807 429.496C444.338 429.027 443.746 428.792 443.031 428.792C442.338 428.792 441.746 429.021 441.255 429.48C440.765 429.928 440.519 430.515 440.519 431.24C440.519 431.976 440.765 432.579 441.255 433.048C441.746 433.517 442.338 433.752 443.031 433.752C443.746 433.752 444.338 433.507 444.807 433.016L445.927 433.944C445.181 434.755 444.215 435.16 443.031 435.16C441.933 435.16 440.999 434.797 440.231 434.072ZM453.751 434.072C452.994 434.797 452.071 435.16 450.983 435.16C449.895 435.16 448.973 434.797 448.215 434.072C447.458 433.347 447.079 432.403 447.079 431.24C447.079 430.088 447.453 429.155 448.199 428.44C448.957 427.725 449.885 427.368 450.983 427.368C452.082 427.368 453.01 427.725 453.767 428.44C454.525 429.155 454.903 430.088 454.903 431.24C454.903 432.392 454.519 433.336 453.751 434.072ZM449.223 433.064C449.703 433.523 450.29 433.752 450.983 433.752C451.677 433.752 452.258 433.523 452.727 433.064C453.207 432.595 453.447 431.987 453.447 431.24C453.447 430.504 453.207 429.912 452.727 429.464C452.258 429.016 451.677 428.792 450.983 428.792C450.29 428.792 449.703 429.016 449.223 429.464C448.754 429.912 448.519 430.504 448.519 431.24C448.519 431.987 448.754 432.595 449.223 433.064ZM465.433 428.792C464.825 428.781 464.34 428.984 463.977 429.4C463.625 429.805 463.449 430.328 463.449 430.968V435H461.993V430.76C461.993 430.152 461.844 429.672 461.545 429.32C461.257 428.968 460.868 428.792 460.377 428.792C459.801 428.792 459.31 428.973 458.905 429.336C458.5 429.699 458.297 430.243 458.297 430.968V435H456.841V427.528H458.297V428.648C458.478 428.275 458.772 427.981 459.177 427.768C459.593 427.555 459.988 427.432 460.361 427.4C460.649 427.389 460.921 427.405 461.177 427.448C462.126 427.597 462.777 428.083 463.129 428.904C463.662 427.88 464.526 427.368 465.721 427.368C466.649 427.368 467.358 427.656 467.849 428.232C468.35 428.808 468.601 429.624 468.601 430.68V435H467.145V430.776C467.145 430.157 466.99 429.672 466.681 429.32C466.382 428.968 465.966 428.792 465.433 428.792ZM471.895 430.68H476.535C476.449 430.061 476.199 429.576 475.783 429.224C475.377 428.861 474.871 428.68 474.263 428.68C473.633 428.68 473.1 428.861 472.663 429.224C472.236 429.576 471.98 430.061 471.895 430.68ZM477.975 431.24C477.975 431.517 477.969 431.709 477.959 431.816H471.895C471.98 432.435 472.241 432.931 472.679 433.304C473.127 433.667 473.671 433.848 474.311 433.848C474.769 433.848 475.191 433.747 475.575 433.544C475.959 433.341 476.252 433.059 476.455 432.696C476.593 432.749 476.807 432.835 477.095 432.952C477.383 433.059 477.585 433.133 477.703 433.176C477.393 433.816 476.929 434.307 476.311 434.648C475.692 434.989 475.009 435.16 474.263 435.16C473.175 435.16 472.263 434.797 471.527 434.072C470.801 433.347 470.439 432.403 470.439 431.24C470.439 430.077 470.801 429.144 471.527 428.44C472.263 427.725 473.175 427.368 474.263 427.368C475.34 427.368 476.225 427.725 476.919 428.44C477.623 429.144 477.975 430.077 477.975 431.24ZM489.902 435V433.848C489.656 434.264 489.294 434.589 488.814 434.824C488.334 435.048 487.822 435.16 487.278 435.16C486.222 435.16 485.326 434.797 484.59 434.072C483.854 433.347 483.486 432.408 483.486 431.256C483.486 430.093 483.854 429.155 484.59 428.44C485.326 427.725 486.222 427.368 487.278 427.368C487.822 427.368 488.334 427.48 488.814 427.704C489.304 427.928 489.667 428.243 489.902 428.648V427.528H491.342V435H489.902ZM489.886 431.24C489.886 430.483 489.635 429.885 489.134 429.448C488.632 429.011 488.056 428.792 487.406 428.792C486.712 428.792 486.131 429.021 485.662 429.48C485.203 429.928 484.974 430.515 484.974 431.24C484.974 431.965 485.208 432.563 485.678 433.032C486.147 433.501 486.723 433.736 487.406 433.736C488.099 433.736 488.686 433.512 489.166 433.064C489.646 432.616 489.886 432.008 489.886 431.24ZM498.223 423.976H502.623C503.711 423.976 504.527 424.312 505.071 424.984C505.625 425.656 505.903 426.472 505.903 427.432C505.903 428.392 505.625 429.208 505.071 429.88C504.527 430.541 503.711 430.872 502.623 430.872H499.727V435H498.223V423.976ZM502.607 425.368H499.727V429.48H502.527C503.156 429.48 503.625 429.283 503.935 428.888C504.255 428.483 504.415 427.997 504.415 427.432C504.415 426.867 504.26 426.381 503.951 425.976C503.652 425.571 503.204 425.368 502.607 425.368ZM509 432.28V435H507.544V427.528H509V429.208C509.363 427.981 510.056 427.368 511.08 427.368C511.667 427.368 512.099 427.464 512.376 427.656L512.152 429.016C511.8 428.845 511.432 428.76 511.048 428.76C510.365 428.76 509.853 429.085 509.512 429.736C509.171 430.376 509 431.224 509 432.28ZM519.845 434.072C519.088 434.797 518.165 435.16 517.077 435.16C515.989 435.16 515.066 434.797 514.309 434.072C513.552 433.347 513.173 432.403 513.173 431.24C513.173 430.088 513.546 429.155 514.293 428.44C515.05 427.725 515.978 427.368 517.077 427.368C518.176 427.368 519.104 427.725 519.861 428.44C520.618 429.155 520.997 430.088 520.997 431.24C520.997 432.392 520.613 433.336 519.845 434.072ZM515.317 433.064C515.797 433.523 516.384 433.752 517.077 433.752C517.77 433.752 518.352 433.523 518.821 433.064C519.301 432.595 519.541 431.987 519.541 431.24C519.541 430.504 519.301 429.912 518.821 429.464C518.352 429.016 517.77 428.792 517.077 428.792C516.384 428.792 515.797 429.016 515.317 429.464C514.848 429.912 514.613 430.504 514.613 431.24C514.613 431.987 514.848 432.595 515.317 433.064ZM521.819 427.528H523.355L525.627 433.144L527.883 427.528H529.435L526.315 435H526.331H524.923L521.819 427.528ZM532.359 435H530.919V427.528H532.359V435ZM530.631 424.776C530.631 425.043 530.727 425.267 530.919 425.448C531.122 425.629 531.362 425.72 531.639 425.72C531.916 425.72 532.151 425.629 532.343 425.448C532.546 425.267 532.647 425.043 532.647 424.776C532.647 424.509 532.546 424.285 532.343 424.104C532.151 423.923 531.916 423.832 531.639 423.832C531.362 423.832 531.122 423.923 530.919 424.104C530.727 424.285 530.631 424.509 530.631 424.776ZM540.698 435V433.848C540.453 434.264 540.09 434.589 539.61 434.824C539.13 435.048 538.618 435.16 538.074 435.16C537.018 435.16 536.122 434.797 535.386 434.072C534.661 433.347 534.298 432.408 534.298 431.256C534.298 430.093 534.661 429.155 535.386 428.44C536.111 427.725 537.002 427.368 538.058 427.368C538.623 427.368 539.141 427.48 539.61 427.704C540.09 427.917 540.453 428.232 540.698 428.648V423.464H542.154V435H540.698ZM539.946 433.064C540.437 432.605 540.682 431.997 540.682 431.24C540.682 430.483 540.431 429.885 539.93 429.448C539.429 429.011 538.853 428.792 538.202 428.792C537.519 428.792 536.943 429.021 536.474 429.48C536.015 429.928 535.786 430.515 535.786 431.24C535.786 431.965 536.015 432.563 536.474 433.032C536.943 433.501 537.519 433.736 538.202 433.736C538.885 433.736 539.466 433.512 539.946 433.064ZM545.551 430.68H550.191C550.106 430.061 549.855 429.576 549.439 429.224C549.034 428.861 548.527 428.68 547.919 428.68C547.29 428.68 546.756 428.861 546.319 429.224C545.892 429.576 545.636 430.061 545.551 430.68ZM551.631 431.24C551.631 431.517 551.626 431.709 551.615 431.816H545.551C545.636 432.435 545.898 432.931 546.335 433.304C546.783 433.667 547.327 433.848 547.967 433.848C548.426 433.848 548.847 433.747 549.231 433.544C549.615 433.341 549.908 433.059 550.111 432.696C550.25 432.749 550.463 432.835 550.751 432.952C551.039 433.059 551.242 433.133 551.359 433.176C551.05 433.816 550.586 434.307 549.967 434.648C549.348 434.989 548.666 435.16 547.919 435.16C546.831 435.16 545.919 434.797 545.183 434.072C544.458 433.347 544.095 432.403 544.095 431.24C544.095 430.077 544.458 429.144 545.183 428.44C545.919 427.725 546.831 427.368 547.919 427.368C548.996 427.368 549.882 427.725 550.575 428.44C551.279 429.144 551.631 430.077 551.631 431.24ZM554.938 432.28V435H553.482V427.528H554.938V429.208C555.3 427.981 555.994 427.368 557.018 427.368C557.604 427.368 558.036 427.464 558.314 427.656L558.09 429.016C557.738 428.845 557.37 428.76 556.986 428.76C556.303 428.76 555.791 429.085 555.45 429.736C555.108 430.376 554.938 431.224 554.938 432.28Z" fill="white"/>
<path d="M66 205C66 177.386 88.3858 155 116 155H273C300.614 155 323 177.386 323 205V492H66V205Z" fill="#FEB538"/>
<rect x="303.88" y="317.729" width="24.288" height="63.9584" rx="5" fill="#FEB538"/>
<rect x="61" y="341.208" width="24.288" height="40.48" rx="5" fill="#FEB538"/>
<rect x="61" y="292.632" width="24.288" height="40.48" rx="5" fill="#FEB538"/>
<rect x="61" y="251.342" width="24.288" height="21.0496" rx="5" fill="#FEB538"/>
<path d="M78 207C78 184.909 95.9086 167 118 167H271C293.091 167 311 184.909 311 207V492H78V207Z" fill="white"/>
<path d="M185.348 189.436V191.36H184.872C183.682 191.36 183.301 192.007 183.285 192.89V193.442H184.617V195.508H183.285V200.809H181.206V195.508H179.876V193.442H181.206V192.906C181.206 190.698 182.348 189.436 184.459 189.436H185.348Z" fill="#5D48AF"/>
<path d="M190.994 193.442V197.337C190.994 198.662 190.074 199.072 189.328 199.072C188.582 199.072 187.916 198.536 187.916 197.385V194.734C187.916 194.02 187.334 193.442 186.616 193.442H185.838V197.495C185.822 199.703 186.837 200.998 188.773 200.998C189.503 200.998 190.677 200.572 190.994 199.61V200.809H193.072V194.734C193.072 194.02 192.49 193.442 191.773 193.442H190.994Z" fill="#5D48AF"/>
<path d="M199.155 193.252C198.425 193.252 197.251 193.694 196.933 194.687V193.441H196.155C195.437 193.441 194.855 194.02 194.855 194.734V200.808H196.933V196.943C196.933 195.602 197.854 195.208 198.599 195.208C199.345 195.208 200.011 195.728 200.011 196.88V200.808H202.09V196.769C202.106 194.561 201.09 193.252 199.155 193.252Z" fill="#5D48AF"/>
<path d="M207.537 196.47L206.315 196.154C205.903 196.044 205.585 195.87 205.585 195.523C205.585 195.145 205.966 194.877 206.442 194.877C206.918 194.877 207.346 195.145 207.346 195.65H209.33C209.345 193.899 207.759 193.252 206.41 193.252C204.697 193.252 203.507 194.325 203.507 195.46C203.507 196.233 203.761 197.29 205.665 197.795L206.648 198.031C207.204 198.173 207.457 198.331 207.457 198.646C207.457 199.072 206.997 199.373 206.394 199.373C205.665 199.373 205.3 198.914 205.3 198.49H203.348C203.364 200.114 204.871 200.998 206.426 200.998C207.981 200.998 209.536 200.193 209.536 198.646C209.536 198.047 209.314 196.943 207.537 196.47Z" fill="#5D48AF"/>
<path d="M210.881 193.442V200.809H212.96V194.734C212.96 194.02 212.378 193.442 211.66 193.442H210.881Z" fill="#5D48AF"/>
<path d="M219.66 193.442L217.883 198.142L216.075 193.442H213.822L216.586 199.958C216.805 200.474 217.312 200.809 217.875 200.809C218.438 200.809 218.945 200.474 219.164 199.958L221.928 193.442H219.659H219.66Z" fill="#5D48AF"/>
<path d="M228.062 193.441V194.419C227.569 193.662 226.618 193.252 225.665 193.252C223.539 193.252 222.047 194.845 222.047 197.132C222.047 199.419 223.57 200.998 225.617 200.998C226.618 200.998 227.569 200.509 228.062 199.752V200.808H230.14V194.734C230.14 194.02 229.558 193.441 228.84 193.441H228.062ZM226.079 199.072C224.983 199.072 224.173 198.157 224.173 197.132C224.173 196.107 224.983 195.176 226.061 195.176C227.14 195.176 227.998 196.012 227.998 197.132C227.998 198.189 227.126 199.072 226.079 199.072Z" fill="#5D48AF"/>
<path d="M231.921 189.436V200.809H234V190.727C234 190.014 233.418 189.435 232.7 189.435H231.921V189.436Z" fill="#5D48AF"/>
<path d="M211.92 192.799C212.494 192.799 212.96 192.336 212.96 191.765C212.96 191.194 212.494 190.731 211.92 190.731C211.346 190.731 210.88 191.194 210.88 191.765C210.88 192.336 211.346 192.799 211.92 192.799Z" fill="#5D48AF"/>
<path d="M159.855 199.489V199.483C159.839 199.349 159.82 199.198 159.794 199.009C159.707 198.406 159.574 197.828 159.398 197.292C159.142 196.512 158.858 195.984 158.502 195.631C157.991 195.124 157.322 194.832 156.618 194.811C155.911 194.792 155.255 195.045 154.77 195.526C154.258 196.034 153.978 196.726 154.001 197.423C154.023 198.123 154.346 198.777 154.908 199.266C155.527 199.809 156.369 200.077 157.248 200.327C157.73 200.467 158.137 200.563 158.523 200.626C158.517 200.693 158.511 200.763 158.505 200.837C158.473 201.195 158.273 201.729 158.089 202.098C158.012 202.254 157.928 202.389 157.838 202.498L157.764 202.588L158.803 203.431L158.877 203.34C159.03 203.156 159.169 202.936 159.292 202.688C159.525 202.219 159.791 201.518 159.841 200.957C159.853 200.83 159.862 200.712 159.869 200.607C159.896 200.277 159.856 199.521 159.855 199.488V199.489ZM157.624 199.045C156.895 198.84 156.208 198.624 155.795 198.264C155.51 198.017 155.355 197.711 155.344 197.38C155.332 197.048 155.47 196.717 155.72 196.468C155.931 196.259 156.223 196.141 156.539 196.141C156.908 196.141 157.279 196.299 157.555 196.574C157.751 196.767 157.941 197.148 158.124 197.704C158.275 198.167 158.391 198.669 158.467 199.199C158.469 199.22 158.473 199.241 158.476 199.261C158.22 199.21 157.946 199.14 157.625 199.045H157.624Z" fill="#5D48AF"/>
<path d="M174.03 195.525C173.031 194.532 171.355 194.579 170.297 195.631C169.941 195.985 169.656 196.513 169.401 197.292C169.227 197.828 169.093 198.407 169.006 199.009C168.979 199.198 168.959 199.348 168.946 199.488C168.944 199.517 168.898 200.198 168.93 200.605C168.938 200.715 168.946 200.831 168.958 200.957C169.008 201.523 169.274 202.223 169.507 202.69C169.63 202.935 169.77 203.154 169.921 203.341L169.997 203.432L171.037 202.589L170.961 202.499C170.874 202.392 170.789 202.258 170.71 202.099C170.527 201.729 170.326 201.196 170.295 200.84C170.287 200.763 170.281 200.694 170.276 200.627C170.658 200.565 171.065 200.469 171.547 200.328C173.337 199.818 173.779 199.38 173.924 199.237C174.984 198.184 175.03 196.519 174.032 195.525H174.03ZM173.407 197.353C173.389 197.701 173.234 198.034 172.974 198.293C172.917 198.35 172.563 198.652 171.172 199.048C170.851 199.141 170.578 199.211 170.325 199.261C170.328 199.242 170.331 199.22 170.334 199.198C170.412 198.667 170.527 198.163 170.677 197.703C170.856 197.156 171.053 196.765 171.245 196.574C171.521 196.298 171.892 196.141 172.262 196.141C172.578 196.141 172.87 196.257 173.081 196.468C173.31 196.696 173.426 197.01 173.408 197.353H173.407Z" fill="#5D48AF"/>
<path d="M167.179 198.995C167.479 199.101 167.759 199.184 168.027 199.242C168.019 199.294 168.013 199.346 168.01 199.395V199.415C168.007 199.423 167.958 200.102 167.988 200.597C167.589 200.521 167.175 200.406 166.733 200.251C165.921 199.966 165.157 199.478 164.401 198.756C163.644 199.476 162.88 199.966 162.069 200.251C161.628 200.406 161.214 200.519 160.815 200.597C160.827 200.351 160.822 199.973 160.798 199.47L160.793 199.367L160.786 199.334C160.782 199.304 160.778 199.273 160.775 199.242C161.043 199.181 161.323 199.1 161.622 198.994C162.265 198.767 162.885 198.362 163.515 197.754C162.544 196.308 160.431 192.957 160.431 191.203C160.431 190.95 160.453 190.698 160.495 190.451C160.506 190.39 160.517 190.328 160.531 190.269C160.937 188.365 162.538 187 164.4 187C166.589 187 168.37 188.887 168.37 191.204C168.37 192.685 166.847 195.328 165.828 196.928C165.681 196.759 165.546 196.577 165.421 196.383L165.281 196.169C165.177 196.011 165.074 195.852 164.972 195.692L164.952 195.66C166.211 193.609 166.955 191.96 166.955 191.204C166.955 189.662 165.809 188.407 164.401 188.407C163.311 188.407 162.352 189.162 161.993 190.27C161.97 190.345 161.948 190.42 161.929 190.498C161.874 190.727 161.848 190.964 161.848 191.205C161.848 192.031 162.712 193.883 164.158 196.159L164.176 196.189C164.282 196.355 164.389 196.52 164.496 196.682L164.63 196.889C165.033 197.512 165.526 198.029 166.092 198.424C166.451 198.675 166.816 198.867 167.181 198.995H167.179Z" fill="#5D48AF"/>
<path d="M164.4 192.112C163.833 192.112 163.275 191.802 162.744 191.193L163.277 190.735C163.668 191.184 164.046 191.41 164.4 191.41C164.754 191.41 165.133 191.182 165.523 190.735L166.056 191.193C165.526 191.802 164.968 192.112 164.4 192.112Z" fill="#5D48AF"/>
<path d="M168.551 334.85C168.551 338.24 165.821 340.22 162.611 340.52V343.31H160.481V340.52C157.031 340.07 154.811 337.7 154.811 334.67H158.951C158.951 336.14 159.971 337.16 161.801 337.16C163.451 337.16 164.381 336.26 164.381 335.06C164.381 334.25 163.841 333.44 162.161 332.93L159.881 332.27C155.711 331.13 154.961 328.64 154.961 326.93C154.961 323.96 157.331 321.83 160.481 321.41V318.62H162.611V321.41C165.881 321.8 168.011 324.02 167.951 327.17H163.841C163.871 325.76 162.971 324.8 161.501 324.8C160.091 324.8 159.131 325.7 159.131 326.87C159.131 327.32 159.281 328.25 161.081 328.73L163.151 329.33C166.031 330.14 168.551 331.67 168.551 334.85ZM182.338 332L177.718 337.31H184.678V341H171.448V338.87L179.128 329.66C179.938 328.67 180.478 327.65 180.478 326.99C180.478 325.67 179.398 324.74 177.868 324.74C176.128 324.74 175.138 325.88 174.898 327.59L171.328 326.99C171.808 323.48 174.088 321.08 178.018 321.08C181.948 321.08 184.498 323.45 184.498 327.02C184.498 328.91 183.598 330.59 182.338 332ZM199.11 329.96C201.24 330.62 202.77 332.63 202.77 335.12C202.77 338.81 199.41 341.36 195.15 341.36C190.89 341.36 187.5 338.81 187.5 335.12C187.5 332.63 189.06 330.62 191.19 329.96C189.99 329.39 189 327.95 189 326.12C189 323.09 191.67 321.08 195.15 321.08C198.63 321.08 201.3 323.09 201.3 326.12C201.3 327.95 200.31 329.39 199.11 329.96ZM195.15 324.47C193.8 324.47 192.81 325.43 192.81 326.57C192.81 327.71 193.8 328.64 195.15 328.64C196.5 328.64 197.49 327.71 197.49 326.57C197.49 325.43 196.5 324.47 195.15 324.47ZM195.15 337.82C197.28 337.82 198.72 336.44 198.72 334.76C198.72 332.96 197.19 331.7 195.15 331.7C193.11 331.7 191.58 332.99 191.58 334.73C191.58 336.47 193.08 337.82 195.15 337.82ZM212.933 341.36C207.203 341.36 205.583 336.8 205.583 331.22C205.583 325.55 207.203 321.08 212.933 321.08C218.603 321.08 220.193 325.55 220.193 331.22C220.193 336.8 218.603 341.36 212.933 341.36ZM212.933 337.7C215.453 337.7 216.173 334.79 216.173 331.22C216.173 327.59 215.453 324.74 212.933 324.74C210.353 324.74 209.573 327.59 209.573 331.22C209.573 334.79 210.353 337.7 212.933 337.7Z" fill="#FFA600"/>
<line x1="112" y1="354.5" x2="277" y2="354.5" stroke="#E7E7E7"/>
<line x1="228.5" y1="315" x2="228.5" y2="344" stroke="#FFCB78"/>
<path d="M122.13 375.732H126.774V376.524H122.922V379.548H125.982V380.34H122.922V384H122.13V375.732ZM131.627 381.456V378.396H132.431V384H131.627V383.076C131.467 383.42 131.207 383.68 130.847 383.856C130.487 384.032 130.127 384.12 129.767 384.12C129.087 384.12 128.555 383.904 128.171 383.472C127.787 383.032 127.599 382.428 127.607 381.66V378.396H128.411V381.66C128.411 382.18 128.527 382.588 128.759 382.884C128.999 383.18 129.335 383.328 129.767 383.328C130.271 383.328 130.707 383.176 131.075 382.872C131.443 382.56 131.627 382.088 131.627 381.456ZM135.174 380.94V384H134.37V378.396H135.174V379.32C135.334 378.976 135.594 378.716 135.954 378.54C136.314 378.364 136.674 378.276 137.034 378.276C137.714 378.276 138.246 378.496 138.63 378.936C139.014 379.368 139.202 379.968 139.194 380.736V384H138.39V380.736C138.39 380.216 138.27 379.808 138.03 379.512C137.798 379.216 137.466 379.068 137.034 379.068C136.53 379.068 136.094 379.224 135.726 379.536C135.358 379.84 135.174 380.308 135.174 380.94ZM140.618 382.392H141.326C141.494 383.04 141.934 383.364 142.646 383.364C143.006 383.364 143.294 383.284 143.51 383.124C143.726 382.956 143.834 382.74 143.834 382.476C143.834 382.028 143.566 381.74 143.03 381.612L142.25 381.432C142.042 381.384 141.862 381.328 141.71 381.264C141.558 381.192 141.398 381.092 141.23 380.964C141.07 380.828 140.954 380.648 140.882 380.424C140.818 380.192 140.802 379.92 140.834 379.608C140.89 379.216 141.09 378.896 141.434 378.648C141.786 378.4 142.194 378.276 142.658 378.276C143.122 378.276 143.514 378.396 143.834 378.636C144.154 378.876 144.35 379.24 144.422 379.728H143.642C143.594 379.52 143.478 379.356 143.294 379.236C143.118 379.108 142.906 379.044 142.658 379.044C142.386 379.044 142.15 379.108 141.95 379.236C141.758 379.364 141.646 379.528 141.614 379.728C141.526 380.2 141.802 380.512 142.442 380.664L143.21 380.844C144.154 381.068 144.626 381.612 144.626 382.476C144.626 382.956 144.43 383.352 144.038 383.664C143.646 383.968 143.158 384.12 142.574 384.12C142.07 384.12 141.622 383.964 141.23 383.652C140.846 383.332 140.642 382.912 140.618 382.392ZM146.94 384H146.148V378.396H146.94V384ZM145.944 376.308C145.944 376.476 146.004 376.616 146.124 376.728C146.244 376.832 146.388 376.884 146.556 376.884C146.724 376.884 146.868 376.832 146.988 376.728C147.108 376.616 147.168 376.476 147.168 376.308C147.168 376.14 147.108 376.004 146.988 375.9C146.868 375.788 146.724 375.732 146.556 375.732C146.388 375.732 146.244 375.788 146.124 375.9C146.004 376.004 145.944 376.14 145.944 376.308ZM148.194 378.396H149.034L150.942 383.064L152.838 378.396H153.69L151.362 384H151.374H150.51L148.194 378.396ZM160.196 378.396V384H159.392V383.04C159.192 383.384 158.896 383.652 158.504 383.844C158.112 384.028 157.704 384.12 157.28 384.12C156.464 384.12 155.78 383.848 155.228 383.304C154.684 382.76 154.412 382.052 154.412 381.18C154.412 380.308 154.684 379.608 155.228 379.08C155.78 378.544 156.464 378.276 157.28 378.276C157.712 378.276 158.12 378.368 158.504 378.552C158.896 378.728 159.192 378.984 159.392 379.32V378.396H160.196ZM155.216 381.18C155.216 381.796 155.412 382.308 155.804 382.716C156.204 383.116 156.696 383.316 157.28 383.316C157.88 383.316 158.38 383.128 158.78 382.752C159.188 382.368 159.392 381.844 159.392 381.18C159.392 380.532 159.176 380.02 158.744 379.644C158.32 379.268 157.832 379.08 157.28 379.08C156.688 379.08 156.196 379.272 155.804 379.656C155.412 380.04 155.216 380.548 155.216 381.18ZM162.936 375.36V384H162.144V375.36H162.936ZM170.887 375.36V376.116H170.287C170.031 376.116 169.819 376.164 169.651 376.26C169.491 376.356 169.375 376.492 169.303 376.668C169.231 376.836 169.183 377.004 169.159 377.172C169.143 377.332 169.135 377.524 169.135 377.748V378.396H170.515V379.116H169.135V384H168.331V379.116H167.239V378.396H168.331V377.748C168.331 376.156 168.983 375.36 170.287 375.36H170.887ZM174.154 384.12C173.346 384.12 172.67 383.848 172.126 383.304C171.59 382.76 171.322 382.052 171.322 381.18C171.322 380.308 171.59 379.608 172.126 379.08C172.662 378.544 173.338 378.276 174.154 378.276C174.962 378.276 175.622 378.54 176.134 379.068C176.646 379.596 176.902 380.3 176.902 381.18C176.902 381.356 176.898 381.48 176.89 381.552H172.138C172.21 382.088 172.43 382.52 172.798 382.848C173.174 383.168 173.626 383.328 174.154 383.328C174.53 383.328 174.87 383.244 175.174 383.076C175.486 382.9 175.73 382.66 175.906 382.356C175.994 382.38 176.13 382.412 176.314 382.452C176.506 382.492 176.638 382.52 176.71 382.536C176.486 383.032 176.146 383.42 175.69 383.7C175.234 383.98 174.722 384.12 174.154 384.12ZM172.138 380.808H176.086C176.006 380.272 175.79 379.848 175.438 379.536C175.094 379.224 174.666 379.068 174.154 379.068C173.626 379.068 173.178 379.228 172.81 379.548C172.442 379.86 172.218 380.28 172.138 380.808ZM180.834 384.12C180.026 384.12 179.35 383.848 178.806 383.304C178.27 382.76 178.002 382.052 178.002 381.18C178.002 380.308 178.27 379.608 178.806 379.08C179.342 378.544 180.018 378.276 180.834 378.276C181.642 378.276 182.302 378.54 182.814 379.068C183.326 379.596 183.582 380.3 183.582 381.18C183.582 381.356 183.578 381.48 183.57 381.552H178.818C178.89 382.088 179.11 382.52 179.478 382.848C179.854 383.168 180.306 383.328 180.834 383.328C181.21 383.328 181.55 383.244 181.854 383.076C182.166 382.9 182.41 382.66 182.586 382.356C182.674 382.38 182.81 382.412 182.994 382.452C183.186 382.492 183.318 382.52 183.39 382.536C183.166 383.032 182.826 383.42 182.37 383.7C181.914 383.98 181.402 384.12 180.834 384.12ZM178.818 380.808H182.766C182.686 380.272 182.47 379.848 182.118 379.536C181.774 379.224 181.346 379.068 180.834 379.068C180.306 379.068 179.858 379.228 179.49 379.548C179.122 379.86 178.898 380.28 178.818 380.808ZM208.561 381.456V378.396H209.365V384H208.561V383.076C208.401 383.42 208.141 383.68 207.781 383.856C207.421 384.032 207.061 384.12 206.701 384.12C206.021 384.12 205.489 383.904 205.105 383.472C204.721 383.032 204.533 382.428 204.541 381.66V378.396H205.345V381.66C205.345 382.18 205.461 382.588 205.693 382.884C205.933 383.18 206.269 383.328 206.701 383.328C207.205 383.328 207.641 383.176 208.009 382.872C208.377 382.56 208.561 382.088 208.561 381.456ZM210.86 382.392H211.568C211.736 383.04 212.176 383.364 212.888 383.364C213.248 383.364 213.536 383.284 213.752 383.124C213.968 382.956 214.076 382.74 214.076 382.476C214.076 382.028 213.808 381.74 213.272 381.612L212.492 381.432C212.284 381.384 212.104 381.328 211.952 381.264C211.8 381.192 211.64 381.092 211.472 380.964C211.312 380.828 211.196 380.648 211.124 380.424C211.06 380.192 211.044 379.92 211.076 379.608C211.132 379.216 211.332 378.896 211.676 378.648C212.028 378.4 212.436 378.276 212.9 378.276C213.364 378.276 213.756 378.396 214.076 378.636C214.396 378.876 214.592 379.24 214.664 379.728H213.884C213.836 379.52 213.72 379.356 213.536 379.236C213.36 379.108 213.148 379.044 212.9 379.044C212.628 379.044 212.392 379.108 212.192 379.236C212 379.364 211.888 379.528 211.856 379.728C211.768 380.2 212.044 380.512 212.684 380.664L213.452 380.844C214.396 381.068 214.868 381.612 214.868 382.476C214.868 382.956 214.672 383.352 214.28 383.664C213.888 383.968 213.4 384.12 212.816 384.12C212.312 384.12 211.864 383.964 211.472 383.652C211.088 383.332 210.884 382.912 210.86 382.392ZM218.838 384.12C218.03 384.12 217.354 383.848 216.81 383.304C216.274 382.76 216.006 382.052 216.006 381.18C216.006 380.308 216.274 379.608 216.81 379.08C217.346 378.544 218.022 378.276 218.838 378.276C219.646 378.276 220.306 378.54 220.818 379.068C221.33 379.596 221.586 380.3 221.586 381.18C221.586 381.356 221.582 381.48 221.574 381.552H216.822C216.894 382.088 217.114 382.52 217.482 382.848C217.858 383.168 218.31 383.328 218.838 383.328C219.214 383.328 219.554 383.244 219.858 383.076C220.17 382.9 220.414 382.66 220.59 382.356C220.678 382.38 220.814 382.412 220.998 382.452C221.19 382.492 221.322 382.52 221.394 382.536C221.17 383.032 220.83 383.42 220.374 383.7C219.918 383.98 219.406 384.12 218.838 384.12ZM216.822 380.808H220.77C220.69 380.272 220.474 379.848 220.122 379.536C219.778 379.224 219.35 379.068 218.838 379.068C218.31 379.068 217.862 379.228 217.494 379.548C217.126 379.86 216.902 380.28 216.822 380.808ZM226.394 378.492L226.298 379.272C226.042 379.144 225.77 379.08 225.482 379.08C224.946 379.08 224.542 379.352 224.27 379.896C224.006 380.432 223.874 381.104 223.874 381.912V384H223.07V378.396H223.874V379.668C224.138 378.74 224.674 378.276 225.482 378.276C225.666 378.276 225.85 378.3 226.034 378.348C226.218 378.396 226.338 378.444 226.394 378.492ZM230.044 382.392H230.752C230.92 383.04 231.36 383.364 232.072 383.364C232.432 383.364 232.72 383.284 232.936 383.124C233.152 382.956 233.26 382.74 233.26 382.476C233.26 382.028 232.992 381.74 232.456 381.612L231.676 381.432C231.468 381.384 231.288 381.328 231.136 381.264C230.984 381.192 230.824 381.092 230.656 380.964C230.496 380.828 230.38 380.648 230.308 380.424C230.244 380.192 230.228 379.92 230.26 379.608C230.316 379.216 230.516 378.896 230.86 378.648C231.212 378.4 231.62 378.276 232.084 378.276C232.548 378.276 232.94 378.396 233.26 378.636C233.58 378.876 233.776 379.24 233.848 379.728H233.068C233.02 379.52 232.904 379.356 232.72 379.236C232.544 379.108 232.332 379.044 232.084 379.044C231.812 379.044 231.576 379.108 231.376 379.236C231.184 379.364 231.072 379.528 231.04 379.728C230.952 380.2 231.228 380.512 231.868 380.664L232.636 380.844C233.58 381.068 234.052 381.612 234.052 382.476C234.052 382.956 233.856 383.352 233.464 383.664C233.072 383.968 232.584 384.12 232 384.12C231.496 384.12 231.048 383.964 230.656 383.652C230.272 383.332 230.068 382.912 230.044 382.392ZM238.022 384.12C237.214 384.12 236.538 383.848 235.994 383.304C235.458 382.76 235.19 382.052 235.19 381.18C235.19 380.308 235.458 379.608 235.994 379.08C236.53 378.544 237.206 378.276 238.022 378.276C238.83 378.276 239.49 378.54 240.002 379.068C240.514 379.596 240.77 380.3 240.77 381.18C240.77 381.356 240.766 381.48 240.758 381.552H236.006C236.078 382.088 236.298 382.52 236.666 382.848C237.042 383.168 237.494 383.328 238.022 383.328C238.398 383.328 238.738 383.244 239.042 383.076C239.354 382.9 239.598 382.66 239.774 382.356C239.862 382.38 239.998 382.412 240.182 382.452C240.374 382.492 240.506 382.52 240.578 382.536C240.354 383.032 240.014 383.42 239.558 383.7C239.102 383.98 238.59 384.12 238.022 384.12ZM236.006 380.808H239.954C239.874 380.272 239.658 379.848 239.306 379.536C238.962 379.224 238.534 379.068 238.022 379.068C237.494 379.068 237.046 379.228 236.678 379.548C236.31 379.86 236.086 380.28 236.006 380.808ZM244.701 384.12C243.893 384.12 243.217 383.848 242.673 383.304C242.137 382.76 241.869 382.052 241.869 381.18C241.869 380.308 242.137 379.608 242.673 379.08C243.209 378.544 243.885 378.276 244.701 378.276C245.509 378.276 246.169 378.54 246.681 379.068C247.193 379.596 247.449 380.3 247.449 381.18C247.449 381.356 247.445 381.48 247.437 381.552H242.685C242.757 382.088 242.977 382.52 243.345 382.848C243.721 383.168 244.173 383.328 244.701 383.328C245.077 383.328 245.417 383.244 245.721 383.076C246.033 382.9 246.277 382.66 246.453 382.356C246.541 382.38 246.677 382.412 246.861 382.452C247.053 382.492 247.185 382.52 247.257 382.536C247.033 383.032 246.693 383.42 246.237 383.7C245.781 383.98 245.269 384.12 244.701 384.12ZM242.685 380.808H246.633C246.553 380.272 246.337 379.848 245.985 379.536C245.641 379.224 245.213 379.068 244.701 379.068C244.173 379.068 243.725 379.228 243.357 379.548C242.989 379.86 242.765 380.28 242.685 380.808ZM253.156 384H252.352V379.116H251.344V378.396H252.352V376.296H253.156V378.396H254.344V379.116H253.156V384ZM256.475 380.94V384H255.671V375.36H256.475V379.32C256.635 378.976 256.895 378.716 257.255 378.54C257.615 378.364 257.975 378.276 258.335 378.276C259.015 378.276 259.547 378.496 259.931 378.936C260.315 379.368 260.503 379.968 260.495 380.736V384H259.691V380.736C259.691 380.216 259.571 379.808 259.331 379.512C259.099 379.216 258.767 379.068 258.335 379.068C257.831 379.068 257.395 379.224 257.027 379.536C256.659 379.84 256.475 380.308 256.475 380.94ZM264.811 384.12C264.003 384.12 263.327 383.848 262.783 383.304C262.247 382.76 261.979 382.052 261.979 381.18C261.979 380.308 262.247 379.608 262.783 379.08C263.319 378.544 263.995 378.276 264.811 378.276C265.619 378.276 266.279 378.54 266.791 379.068C267.303 379.596 267.559 380.3 267.559 381.18C267.559 381.356 267.555 381.48 267.547 381.552H262.795C262.867 382.088 263.087 382.52 263.455 382.848C263.831 383.168 264.283 383.328 264.811 383.328C265.187 383.328 265.527 383.244 265.831 383.076C266.143 382.9 266.387 382.66 266.563 382.356C266.651 382.38 266.787 382.412 266.971 382.452C267.163 382.492 267.295 382.52 267.367 382.536C267.143 383.032 266.803 383.42 266.347 383.7C265.891 383.98 265.379 384.12 264.811 384.12ZM262.795 380.808H266.743C266.663 380.272 266.447 379.848 266.095 379.536C265.751 379.224 265.323 379.068 264.811 379.068C264.283 379.068 263.835 379.228 263.467 379.548C263.099 379.86 262.875 380.28 262.795 380.808ZM194.662 404H193.858V399.116H192.85V398.396H193.858V396.296H194.662V398.396H195.85V399.116H194.662V404ZM201.692 403.304C201.124 403.848 200.432 404.12 199.616 404.12C198.8 404.12 198.108 403.848 197.54 403.304C196.972 402.76 196.688 402.052 196.688 401.18C196.688 400.316 196.968 399.616 197.528 399.08C198.096 398.544 198.792 398.276 199.616 398.276C200.44 398.276 201.132 398.544 201.692 399.08C202.26 399.616 202.544 400.316 202.544 401.18C202.544 402.052 202.26 402.76 201.692 403.304ZM198.092 402.728C198.508 403.128 199.016 403.328 199.616 403.328C200.216 403.328 200.72 403.128 201.128 402.728C201.544 402.328 201.752 401.812 201.752 401.18C201.752 400.548 201.544 400.04 201.128 399.656C200.72 399.264 200.216 399.068 199.616 399.068C199.016 399.068 198.508 399.264 198.092 399.656C197.684 400.04 197.48 400.548 197.48 401.18C197.48 401.812 197.684 402.328 198.092 402.728ZM205.22 404H204.416V399.116H203.408V398.396H204.416V396.296H205.22V398.396H206.408V399.116H205.22V404ZM213.03 398.396V404H212.226V403.04C212.026 403.384 211.73 403.652 211.338 403.844C210.946 404.028 210.538 404.12 210.114 404.12C209.298 404.12 208.614 403.848 208.062 403.304C207.518 402.76 207.246 402.052 207.246 401.18C207.246 400.308 207.518 399.608 208.062 399.08C208.614 398.544 209.298 398.276 210.114 398.276C210.546 398.276 210.954 398.368 211.338 398.552C211.73 398.728 212.026 398.984 212.226 399.32V398.396H213.03ZM208.05 401.18C208.05 401.796 208.246 402.308 208.638 402.716C209.038 403.116 209.53 403.316 210.114 403.316C210.714 403.316 211.214 403.128 211.614 402.752C212.022 402.368 212.226 401.844 212.226 401.18C212.226 400.532 212.01 400.02 211.578 399.644C211.154 399.268 210.666 399.08 210.114 399.08C209.522 399.08 209.03 399.272 208.638 399.656C208.246 400.04 208.05 400.548 208.05 401.18ZM215.77 395.36V404H214.978V395.36H215.77ZM224.892 402.788L225.468 403.352C224.916 403.864 224.24 404.12 223.44 404.12C222.624 404.12 221.932 403.848 221.364 403.304C220.796 402.76 220.512 402.052 220.512 401.18C220.512 400.316 220.792 399.616 221.352 399.08C221.92 398.544 222.616 398.276 223.44 398.276C224.232 398.276 224.904 398.528 225.456 399.032L224.892 399.596C224.492 399.244 224.008 399.068 223.44 399.068C222.84 399.068 222.332 399.264 221.916 399.656C221.508 400.04 221.304 400.548 221.304 401.18C221.304 401.812 221.508 402.328 221.916 402.728C222.332 403.128 222.84 403.328 223.44 403.328C224.008 403.328 224.492 403.148 224.892 402.788ZM231.387 403.304C230.819 403.848 230.127 404.12 229.311 404.12C228.495 404.12 227.803 403.848 227.235 403.304C226.667 402.76 226.383 402.052 226.383 401.18C226.383 400.316 226.663 399.616 227.223 399.08C227.791 398.544 228.487 398.276 229.311 398.276C230.135 398.276 230.827 398.544 231.387 399.08C231.955 399.616 232.239 400.316 232.239 401.18C232.239 402.052 231.955 402.76 231.387 403.304ZM227.787 402.728C228.203 403.128 228.711 403.328 229.311 403.328C229.911 403.328 230.415 403.128 230.823 402.728C231.239 402.328 231.447 401.812 231.447 401.18C231.447 400.548 231.239 400.04 230.823 399.656C230.415 399.264 229.911 399.068 229.311 399.068C228.711 399.068 228.203 399.264 227.787 399.656C227.379 400.04 227.175 400.548 227.175 401.18C227.175 401.812 227.379 402.328 227.787 402.728ZM233.354 402.392H234.062C234.23 403.04 234.67 403.364 235.382 403.364C235.742 403.364 236.03 403.284 236.246 403.124C236.462 402.956 236.57 402.74 236.57 402.476C236.57 402.028 236.302 401.74 235.766 401.612L234.986 401.432C234.778 401.384 234.598 401.328 234.446 401.264C234.294 401.192 234.134 401.092 233.966 400.964C233.806 400.828 233.69 400.648 233.618 400.424C233.554 400.192 233.538 399.92 233.57 399.608C233.626 399.216 233.826 398.896 234.17 398.648C234.522 398.4 234.93 398.276 235.394 398.276C235.858 398.276 236.25 398.396 236.57 398.636C236.89 398.876 237.086 399.24 237.158 399.728H236.378C236.33 399.52 236.214 399.356 236.03 399.236C235.854 399.108 235.642 399.044 235.394 399.044C235.122 399.044 234.886 399.108 234.686 399.236C234.494 399.364 234.382 399.528 234.35 399.728C234.262 400.2 234.538 400.512 235.178 400.664L235.946 400.844C236.89 401.068 237.362 401.612 237.362 402.476C237.362 402.956 237.166 403.352 236.774 403.664C236.382 403.968 235.894 404.12 235.31 404.12C234.806 404.12 234.358 403.964 233.966 403.652C233.582 403.332 233.378 402.912 233.354 402.392ZM240.06 404H239.256V399.116H238.248V398.396H239.256V396.296H240.06V398.396H241.248V399.116H240.06V404ZM242.437 403.94C242.309 403.82 242.245 403.672 242.245 403.496C242.245 403.32 242.309 403.172 242.437 403.052C242.565 402.932 242.721 402.872 242.905 402.872C243.089 402.872 243.245 402.932 243.373 403.052C243.501 403.172 243.565 403.32 243.565 403.496C243.565 403.672 243.501 403.82 243.373 403.94C243.245 404.06 243.089 404.12 242.905 404.12C242.721 404.12 242.565 404.06 242.437 403.94Z" fill="#A1A1A1"/>
<path d="M192.549 381.312H193.677V382.416H192.549V384H191.361V382.416H187.425V382.128L192.213 376.164H192.549V381.312ZM191.361 378.84L189.321 381.312H191.361V378.84ZM200.039 381.552C200.039 382.716 199.115 383.676 197.711 383.76V384.78H196.943V383.724C195.623 383.52 194.783 382.536 194.795 381.48H196.019C196.019 382.128 196.571 382.728 197.483 382.728C198.335 382.728 198.803 382.212 198.803 381.6C198.803 381.084 198.431 380.712 197.675 380.508L196.715 380.268C195.107 379.86 194.843 378.924 194.843 378.3C194.843 377.148 195.779 376.344 196.943 376.188V375.216H197.711V376.188C198.959 376.32 199.811 377.196 199.799 378.396H198.575C198.587 377.712 198.083 377.22 197.339 377.22C196.607 377.22 196.079 377.676 196.079 378.288C196.079 378.528 196.151 379.02 197.039 379.224L197.975 379.452C199.259 379.776 200.039 380.484 200.039 381.552ZM150.416 401.552C150.416 402.716 149.492 403.676 148.088 403.76V404.78H147.32V403.724C146 403.52 145.16 402.536 145.172 401.48H146.396C146.396 402.128 146.948 402.728 147.86 402.728C148.712 402.728 149.18 402.212 149.18 401.6C149.18 401.084 148.808 400.712 148.052 400.508L147.092 400.268C145.484 399.86 145.22 398.924 145.22 398.3C145.22 397.148 146.156 396.344 147.32 396.188V395.216H148.088V396.188C149.336 396.32 150.188 397.196 150.176 398.396H148.952C148.964 397.712 148.46 397.22 147.716 397.22C146.984 397.22 146.456 397.676 146.456 398.288C146.456 398.528 146.528 399.02 147.416 399.224L148.352 399.452C149.636 399.776 150.416 400.484 150.416 401.552ZM155.325 399.788C156.141 400.064 156.693 400.784 156.693 401.708C156.693 403.148 155.553 404.144 153.945 404.144C152.829 404.144 151.881 403.556 151.389 402.548L152.313 401.984C152.685 402.644 153.249 403.04 153.897 403.04C154.833 403.04 155.505 402.488 155.505 401.72C155.505 400.88 154.833 400.316 153.909 400.316H153.105V399.344H153.789C154.617 399.344 155.145 398.864 155.133 398.192C155.133 397.568 154.653 397.172 153.957 397.172C153.429 397.172 152.889 397.448 152.589 397.88L151.821 397.196C152.253 396.512 153.093 396.056 154.005 396.056C155.385 396.056 156.321 396.896 156.321 398.168C156.321 398.888 155.937 399.5 155.325 399.788ZM161.907 400.412L159.843 402.872H162.927V404H157.899V403.448L160.851 399.872C161.319 399.308 161.631 398.72 161.631 398.384C161.631 397.652 161.103 397.172 160.299 397.172C159.495 397.172 158.955 397.64 158.883 398.348L157.827 398.132C157.983 396.884 158.919 396.056 160.311 396.056C161.823 396.056 162.807 396.992 162.807 398.384C162.807 399.032 162.423 399.812 161.907 400.412ZM164.973 404H163.869L167.925 395.732H169.029L164.973 404ZM174.062 399.224V395.348H175.238V404H174.062V403.16C173.69 403.796 172.886 404.144 172.13 404.144C170.606 404.144 169.346 402.968 169.346 401.192C169.346 399.404 170.606 398.252 172.118 398.252C172.91 398.252 173.69 398.588 174.062 399.224ZM172.262 403.04C173.21 403.04 174.05 402.308 174.05 401.18C174.05 400.052 173.126 399.356 172.262 399.356C171.302 399.356 170.522 400.124 170.522 401.18C170.522 402.224 171.302 403.04 172.262 403.04ZM181.351 399.236V398.396H182.527V404H181.351V403.052C180.991 403.7 180.223 404.144 179.359 404.144C177.895 404.144 176.635 402.92 176.635 401.192C176.635 399.524 177.823 398.252 179.407 398.252C180.223 398.252 180.991 398.6 181.351 399.236ZM179.563 403.04C180.499 403.04 181.339 402.248 181.339 401.192C181.339 400.112 180.439 399.356 179.539 399.356C178.579 399.356 177.823 400.196 177.823 401.192C177.823 402.2 178.579 403.04 179.563 403.04ZM186.468 402.296L188.076 398.396H189.348L185.868 406.724H184.62L185.832 403.748L183.588 398.396H184.86L186.468 402.296Z" fill="#228E8A"/>
<path d="M126.485 281.16V285H125.669V281.16L122.561 276.732H123.509L126.077 280.296L128.669 276.732H129.629L126.485 281.16ZM134.031 284.304C133.463 284.848 132.771 285.12 131.955 285.12C131.139 285.12 130.447 284.848 129.879 284.304C129.311 283.76 129.027 283.052 129.027 282.18C129.027 281.316 129.307 280.616 129.867 280.08C130.435 279.544 131.131 279.276 131.955 279.276C132.779 279.276 133.471 279.544 134.031 280.08C134.599 280.616 134.883 281.316 134.883 282.18C134.883 283.052 134.599 283.76 134.031 284.304ZM130.431 283.728C130.847 284.128 131.355 284.328 131.955 284.328C132.555 284.328 133.059 284.128 133.467 283.728C133.883 283.328 134.091 282.812 134.091 282.18C134.091 281.548 133.883 281.04 133.467 280.656C133.059 280.264 132.555 280.068 131.955 280.068C131.355 280.068 130.847 280.264 130.431 280.656C130.023 281.04 129.819 281.548 129.819 282.18C129.819 282.812 130.023 283.328 130.431 283.728ZM140.391 282.456V279.396H141.195V285H140.391V284.076C140.231 284.42 139.971 284.68 139.611 284.856C139.251 285.032 138.891 285.12 138.531 285.12C137.851 285.12 137.319 284.904 136.935 284.472C136.551 284.032 136.363 283.428 136.371 282.66V279.396H137.175V282.66C137.175 283.18 137.291 283.588 137.523 283.884C137.763 284.18 138.099 284.328 138.531 284.328C139.035 284.328 139.471 284.176 139.839 283.872C140.207 283.56 140.391 283.088 140.391 282.456ZM150.318 283.788L150.894 284.352C150.342 284.864 149.666 285.12 148.866 285.12C148.05 285.12 147.358 284.848 146.79 284.304C146.222 283.76 145.938 283.052 145.938 282.18C145.938 281.316 146.218 280.616 146.778 280.08C147.346 279.544 148.042 279.276 148.866 279.276C149.658 279.276 150.33 279.528 150.882 280.032L150.318 280.596C149.918 280.244 149.434 280.068 148.866 280.068C148.266 280.068 147.758 280.264 147.342 280.656C146.934 281.04 146.73 281.548 146.73 282.18C146.73 282.812 146.934 283.328 147.342 283.728C147.758 284.128 148.266 284.328 148.866 284.328C149.434 284.328 149.918 284.148 150.318 283.788ZM157.593 279.396V285H156.789V284.04C156.589 284.384 156.293 284.652 155.901 284.844C155.509 285.028 155.101 285.12 154.677 285.12C153.861 285.12 153.177 284.848 152.625 284.304C152.081 283.76 151.809 283.052 151.809 282.18C151.809 281.308 152.081 280.608 152.625 280.08C153.177 279.544 153.861 279.276 154.677 279.276C155.109 279.276 155.517 279.368 155.901 279.552C156.293 279.728 156.589 279.984 156.789 280.32V279.396H157.593ZM152.613 282.18C152.613 282.796 152.809 283.308 153.201 283.716C153.601 284.116 154.093 284.316 154.677 284.316C155.277 284.316 155.777 284.128 156.177 283.752C156.585 283.368 156.789 282.844 156.789 282.18C156.789 281.532 156.573 281.02 156.141 280.644C155.717 280.268 155.229 280.08 154.677 280.08C154.085 280.08 153.593 280.272 153.201 280.656C152.809 281.04 152.613 281.548 152.613 282.18ZM160.344 281.94V285H159.54V279.396H160.344V280.32C160.504 279.976 160.764 279.716 161.124 279.54C161.484 279.364 161.844 279.276 162.204 279.276C162.884 279.276 163.416 279.496 163.8 279.936C164.184 280.368 164.372 280.968 164.364 281.736V285H163.56V281.736C163.56 281.216 163.44 280.808 163.2 280.512C162.968 280.216 162.636 280.068 162.204 280.068C161.7 280.068 161.264 280.224 160.896 280.536C160.528 280.84 160.344 281.308 160.344 281.94ZM173.415 283.788L173.991 284.352C173.439 284.864 172.763 285.12 171.963 285.12C171.147 285.12 170.455 284.848 169.887 284.304C169.319 283.76 169.035 283.052 169.035 282.18C169.035 281.316 169.315 280.616 169.875 280.08C170.443 279.544 171.139 279.276 171.963 279.276C172.755 279.276 173.427 279.528 173.979 280.032L173.415 280.596C173.015 280.244 172.531 280.068 171.963 280.068C171.363 280.068 170.855 280.264 170.439 280.656C170.031 281.04 169.827 281.548 169.827 282.18C169.827 282.812 170.031 283.328 170.439 283.728C170.855 284.128 171.363 284.328 171.963 284.328C172.531 284.328 173.015 284.148 173.415 283.788ZM176.27 281.94V285H175.466V276.36H176.27V280.32C176.43 279.976 176.69 279.716 177.05 279.54C177.41 279.364 177.77 279.276 178.13 279.276C178.81 279.276 179.342 279.496 179.726 279.936C180.11 280.368 180.298 280.968 180.29 281.736V285H179.486V281.736C179.486 281.216 179.366 280.808 179.126 280.512C178.894 280.216 178.562 280.068 178.13 280.068C177.626 280.068 177.19 280.224 176.822 280.536C176.454 280.84 176.27 281.308 176.27 281.94ZM187.558 279.396V285H186.754V284.04C186.554 284.384 186.258 284.652 185.866 284.844C185.474 285.028 185.066 285.12 184.642 285.12C183.826 285.12 183.142 284.848 182.59 284.304C182.046 283.76 181.774 283.052 181.774 282.18C181.774 281.308 182.046 280.608 182.59 280.08C183.142 279.544 183.826 279.276 184.642 279.276C185.074 279.276 185.482 279.368 185.866 279.552C186.258 279.728 186.554 279.984 186.754 280.32V279.396H187.558ZM182.578 282.18C182.578 282.796 182.774 283.308 183.166 283.716C183.566 284.116 184.058 284.316 184.642 284.316C185.242 284.316 185.742 284.128 186.142 283.752C186.55 283.368 186.754 282.844 186.754 282.18C186.754 281.532 186.538 281.02 186.106 280.644C185.682 280.268 185.194 280.08 184.642 280.08C184.05 280.08 183.558 280.272 183.166 280.656C182.774 281.04 182.578 281.548 182.578 282.18ZM190.309 281.94V285H189.505V279.396H190.309V280.32C190.469 279.976 190.729 279.716 191.089 279.54C191.449 279.364 191.809 279.276 192.169 279.276C192.849 279.276 193.381 279.496 193.765 279.936C194.149 280.368 194.337 280.968 194.329 281.736V285H193.525V281.736C193.525 281.216 193.405 280.808 193.165 280.512C192.933 280.216 192.601 280.068 192.169 280.068C191.665 280.068 191.229 280.224 190.861 280.536C190.493 280.84 190.309 281.308 190.309 281.94ZM196.617 282.216C196.617 282.848 196.813 283.356 197.205 283.74C197.597 284.124 198.089 284.316 198.681 284.316C199.233 284.316 199.721 284.128 200.145 283.752C200.577 283.376 200.793 282.864 200.793 282.216C200.793 281.552 200.589 281.032 200.181 280.656C199.781 280.272 199.281 280.08 198.681 280.08C198.097 280.08 197.605 280.284 197.205 280.692C196.813 281.092 196.617 281.6 196.617 282.216ZM196.185 286.404L196.869 286.008C197.269 286.672 197.845 287.004 198.597 287.004C199.293 287.004 199.833 286.772 200.217 286.308C200.609 285.844 200.801 285.068 200.793 283.98C200.617 284.332 200.329 284.612 199.929 284.82C199.529 285.02 199.113 285.12 198.681 285.12C197.865 285.12 197.181 284.856 196.629 284.328C196.085 283.792 195.813 283.088 195.813 282.216C195.813 281.344 196.085 280.636 196.629 280.092C197.181 279.548 197.865 279.276 198.681 279.276C199.105 279.276 199.513 279.372 199.905 279.564C200.297 279.748 200.593 280.012 200.793 280.356V279.396H201.597V284.112C201.597 286.568 200.597 287.796 198.597 287.796C198.109 287.796 197.653 287.68 197.229 287.448C196.805 287.216 196.457 286.868 196.185 286.404ZM205.981 285.12C205.173 285.12 204.497 284.848 203.953 284.304C203.417 283.76 203.149 283.052 203.149 282.18C203.149 281.308 203.417 280.608 203.953 280.08C204.489 279.544 205.165 279.276 205.981 279.276C206.789 279.276 207.449 279.54 207.961 280.068C208.473 280.596 208.729 281.3 208.729 282.18C208.729 282.356 208.725 282.48 208.717 282.552H203.965C204.037 283.088 204.257 283.52 204.625 283.848C205.001 284.168 205.453 284.328 205.981 284.328C206.357 284.328 206.697 284.244 207.001 284.076C207.313 283.9 207.557 283.66 207.733 283.356C207.821 283.38 207.957 283.412 208.141 283.452C208.333 283.492 208.465 283.52 208.537 283.536C208.313 284.032 207.973 284.42 207.517 284.7C207.061 284.98 206.549 285.12 205.981 285.12ZM203.965 281.808H207.913C207.833 281.272 207.617 280.848 207.265 280.536C206.921 280.224 206.493 280.068 205.981 280.068C205.453 280.068 205.005 280.228 204.637 280.548C204.269 280.86 204.045 281.28 203.965 281.808ZM214.192 285H213.4V279.396H214.192V285ZM213.196 277.308C213.196 277.476 213.256 277.616 213.376 277.728C213.496 277.832 213.64 277.884 213.808 277.884C213.976 277.884 214.12 277.832 214.24 277.728C214.36 277.616 214.42 277.476 214.42 277.308C214.42 277.14 214.36 277.004 214.24 276.9C214.12 276.788 213.976 276.732 213.808 276.732C213.64 276.732 213.496 276.788 213.376 276.9C213.256 277.004 213.196 277.14 213.196 277.308ZM217.306 285H216.502V280.116H215.494V279.396H216.502V277.296H217.306V279.396H218.494V280.116H217.306V285ZM228.175 279.396V285H227.371V284.04C227.171 284.384 226.875 284.652 226.483 284.844C226.091 285.028 225.683 285.12 225.259 285.12C224.443 285.12 223.759 284.848 223.207 284.304C222.663 283.76 222.391 283.052 222.391 282.18C222.391 281.308 222.663 280.608 223.207 280.08C223.759 279.544 224.443 279.276 225.259 279.276C225.691 279.276 226.099 279.368 226.483 279.552C226.875 279.728 227.171 279.984 227.371 280.32V279.396H228.175ZM223.195 282.18C223.195 282.796 223.391 283.308 223.783 283.716C224.183 284.116 224.675 284.316 225.259 284.316C225.859 284.316 226.359 284.128 226.759 283.752C227.167 283.368 227.371 282.844 227.371 282.18C227.371 281.532 227.155 281.02 226.723 280.644C226.299 280.268 225.811 280.08 225.259 280.08C224.667 280.08 224.175 280.272 223.783 280.656C223.391 281.04 223.195 281.548 223.195 282.18ZM230.926 281.94V285H230.122V279.396H230.926V280.32C231.086 279.976 231.346 279.716 231.706 279.54C232.066 279.364 232.426 279.276 232.786 279.276C233.466 279.276 233.998 279.496 234.382 279.936C234.766 280.368 234.954 280.968 234.946 281.736V285H234.142V281.736C234.142 281.216 234.022 280.808 233.782 280.512C233.55 280.216 233.218 280.068 232.786 280.068C232.282 280.068 231.846 280.224 231.478 280.536C231.11 280.84 230.926 281.308 230.926 281.94ZM238.04 287.712H237.212L238.328 284.988L236.024 279.396H236.864L238.76 283.956L240.668 279.396H241.52L238.04 287.712ZM243.943 285H243.139V280.116H242.131V279.396H243.139V277.296H243.943V279.396H245.131V280.116H243.943V285ZM247.25 285H246.458V279.396H247.25V285ZM246.254 277.308C246.254 277.476 246.314 277.616 246.434 277.728C246.554 277.832 246.698 277.884 246.866 277.884C247.034 277.884 247.178 277.832 247.298 277.728C247.418 277.616 247.478 277.476 247.478 277.308C247.478 277.14 247.418 277.004 247.298 276.9C247.178 276.788 247.034 276.732 246.866 276.732C246.698 276.732 246.554 276.788 246.434 276.9C246.314 277.004 246.254 277.14 246.254 277.308ZM254.013 281.94V285H253.209V281.736C253.209 281.216 253.089 280.808 252.849 280.512C252.617 280.216 252.285 280.068 251.853 280.068C251.349 280.068 250.913 280.224 250.545 280.536C250.177 280.84 249.993 281.308 249.993 281.94V285H249.189V279.396H249.993V280.32C250.153 279.992 250.425 279.736 250.809 279.552C251.193 279.368 251.541 279.276 251.853 279.276C252.813 279.276 253.461 279.684 253.797 280.5C254.189 279.684 254.881 279.276 255.873 279.276C256.553 279.276 257.085 279.496 257.469 279.936C257.853 280.368 258.041 280.968 258.033 281.736V285H257.229V281.736C257.229 281.216 257.109 280.808 256.869 280.512C256.637 280.216 256.305 280.068 255.873 280.068C255.369 280.068 254.933 280.224 254.565 280.536C254.197 280.84 254.013 281.308 254.013 281.94ZM262.348 285.12C261.54 285.12 260.864 284.848 260.32 284.304C259.784 283.76 259.516 283.052 259.516 282.18C259.516 281.308 259.784 280.608 260.32 280.08C260.856 279.544 261.532 279.276 262.348 279.276C263.156 279.276 263.816 279.54 264.328 280.068C264.84 280.596 265.096 281.3 265.096 282.18C265.096 282.356 265.092 282.48 265.084 282.552H260.332C260.404 283.088 260.624 283.52 260.992 283.848C261.368 284.168 261.82 284.328 262.348 284.328C262.724 284.328 263.064 284.244 263.368 284.076C263.68 283.9 263.924 283.66 264.1 283.356C264.188 283.38 264.324 283.412 264.508 283.452C264.7 283.492 264.832 283.52 264.904 283.536C264.68 284.032 264.34 284.42 263.884 284.7C263.428 284.98 262.916 285.12 262.348 285.12ZM260.332 281.808H264.28C264.2 281.272 263.984 280.848 263.632 280.536C263.288 280.224 262.86 280.068 262.348 280.068C261.82 280.068 261.372 280.228 261.004 280.548C260.636 280.86 260.412 281.28 260.332 281.808Z" fill="#A1A1A1"/>
<path d="M117.248 245.22V259H114.908L109.588 249.94V259H107.048V245.22H109.428L114.688 254.18V245.22H117.248ZM124.426 256.8C125.786 256.8 126.866 255.82 126.866 254.3C126.866 252.8 125.786 251.86 124.426 251.86C123.066 251.86 121.986 252.8 121.986 254.3C121.986 255.82 123.066 256.8 124.426 256.8ZM124.426 259.18C121.786 259.18 119.566 257.24 119.566 254.3C119.566 251.34 121.786 249.46 124.426 249.46C127.066 249.46 129.286 251.34 129.286 254.3C129.286 257.24 127.066 259.18 124.426 259.18ZM145.274 249.66L141.934 259H139.894L137.814 252.74L135.794 259H133.774L130.334 249.66H132.934L134.834 255.56L136.714 249.66H138.874L140.774 255.56L142.674 249.66H145.274ZM146.755 261.64L145.135 261.04C145.975 259.9 146.675 258.08 146.615 256.14H149.135C149.035 259.08 147.695 260.86 146.755 261.64ZM156.346 254.98H158.906C158.966 256 159.806 256.92 161.286 256.92C162.666 256.92 163.506 256.2 163.566 255.26C163.626 254.36 162.986 253.74 161.666 253.38L159.966 252.94C156.966 252.08 156.486 250.3 156.486 249.1C156.486 246.68 158.586 245.06 161.126 245.06C163.726 245.06 165.706 246.66 165.706 249.22H163.146C163.146 248.12 162.366 247.42 161.086 247.42C159.946 247.42 159.026 248.06 159.026 249.04C159.026 249.44 159.186 250.26 160.666 250.62L162.366 251.12C165.466 251.98 166.226 253.7 166.126 255.32C166.026 257.8 163.786 259.22 161.286 259.22C158.346 259.22 156.346 257.34 156.346 254.98ZM177.349 254.3C177.349 254.54 177.329 254.92 177.309 255.14H170.189C170.349 256.4 171.389 257.14 172.769 257.14C173.709 257.14 174.649 256.74 175.109 255.94C175.689 256.26 176.349 256.62 176.969 256.94C176.109 258.54 174.329 259.2 172.609 259.2C169.949 259.2 167.769 257.24 167.769 254.3C167.769 251.34 169.949 249.46 172.609 249.46C175.249 249.46 177.349 251.34 177.349 254.3ZM170.169 253.48H174.969C174.789 252.2 173.829 251.5 172.629 251.5C171.349 251.5 170.349 252.2 170.169 253.48ZM182.603 246.1V249.66H184.583V251.62H182.603V259H180.183V251.62H178.483V249.66H180.183V246.1H182.603ZM197.345 259H194.725V252.72L189.445 245.22H192.485L196.025 250.52L199.605 245.22H202.665L197.345 252.76V259ZM206.105 256.8C207.465 256.8 208.545 255.82 208.545 254.3C208.545 252.8 207.465 251.86 206.105 251.86C204.745 251.86 203.665 252.8 203.665 254.3C203.665 255.82 204.745 256.8 206.105 256.8ZM206.105 259.18C203.465 259.18 201.245 257.24 201.245 254.3C201.245 251.34 203.465 249.46 206.105 249.46C208.745 249.46 210.965 251.34 210.965 254.3C210.965 257.24 208.745 259.18 206.105 259.18ZM219.293 254.64V249.66H221.733V259H219.293V257.68C218.773 258.68 217.653 259.2 216.713 259.2C214.493 259.2 213.033 257.82 213.033 255.18V249.66H215.493V254.74C215.493 256.26 216.413 256.82 217.273 256.82C218.293 256.82 219.293 256.26 219.293 254.64ZM226.941 255.7V259H224.501V249.66H226.941V251.86C227.421 250.16 228.521 249.46 229.581 249.46C230.241 249.46 230.741 249.58 231.121 249.8L230.701 252C230.121 251.74 229.521 251.74 229.281 251.74C227.621 251.74 226.941 253.22 226.941 255.7ZM243.116 247.5H240.116V251.82H243.036C244.356 251.82 244.976 250.7 244.976 249.68C244.976 248.68 244.396 247.5 243.116 247.5ZM237.556 259V245.22H243.156C246.216 245.22 247.536 247.44 247.536 249.68C247.536 251.92 246.216 254.1 243.156 254.1H240.116V259H237.556ZM251.785 255.7V259H249.345V249.66H251.785V251.86C252.265 250.16 253.365 249.46 254.425 249.46C255.085 249.46 255.585 249.58 255.965 249.8L255.545 252C254.965 251.74 254.365 251.74 254.125 251.74C252.465 251.74 251.785 253.22 251.785 255.7ZM259.988 249.66V259H257.568V249.66H259.988ZM257.208 246.04C257.208 245.22 257.928 244.58 258.788 244.58C259.648 244.58 260.328 245.22 260.328 246.04C260.328 246.9 259.648 247.52 258.788 247.52C257.928 247.52 257.208 246.9 257.208 246.04ZM262.143 254.3C262.143 251.34 264.503 249.46 267.183 249.46C268.763 249.46 270.183 250.1 271.063 251.28L269.123 252.74C268.663 252.12 267.963 251.82 267.183 251.82C265.823 251.82 264.563 252.78 264.563 254.3C264.563 255.82 265.823 256.86 267.183 256.86C267.963 256.86 268.663 256.54 269.123 255.92L271.083 257.36C270.203 258.54 268.783 259.2 267.183 259.2C264.503 259.2 262.143 257.24 262.143 254.3ZM281.997 254.3C281.997 254.54 281.977 254.92 281.957 255.14H274.837C274.997 256.4 276.037 257.14 277.417 257.14C278.357 257.14 279.297 256.74 279.757 255.94C280.337 256.26 280.997 256.62 281.617 256.94C280.757 258.54 278.977 259.2 277.257 259.2C274.597 259.2 272.417 257.24 272.417 254.3C272.417 251.34 274.597 249.46 277.257 249.46C279.897 249.46 281.997 251.34 281.997 254.3ZM274.817 253.48H279.617C279.437 252.2 278.477 251.5 277.277 251.5C275.997 251.5 274.997 252.2 274.817 253.48Z" fill="#121D1D"/>
<rect x="108" y="430" width="172" height="41" rx="20.5" fill="#228E8A"/>
<path d="M187.105 452.708V446.732H188.341V455H187.177L183.565 448.976V455H182.329V446.732H183.529L187.105 452.708ZM195.55 452.168C195.55 452.324 195.538 452.492 195.526 452.672H191.062C191.218 453.584 191.89 454.052 192.79 454.052C193.45 454.052 194.062 453.752 194.374 453.236L195.31 453.704C194.818 454.64 193.81 455.144 192.742 455.144C191.122 455.144 189.85 453.956 189.85 452.18C189.85 450.404 191.146 449.252 192.742 449.252C194.338 449.252 195.55 450.404 195.55 452.168ZM191.074 451.724H194.374C194.254 450.848 193.618 450.344 192.754 450.344C191.89 450.344 191.242 450.788 191.074 451.724ZM199.522 451.928L201.742 455H200.338L198.838 452.9L197.326 455H195.934L198.154 451.928L196.318 449.396H197.746L198.838 450.968L199.942 449.396H201.358L199.522 451.928ZM204.346 449.396H205.546V450.38H204.346V455H203.17V450.38H202.162V449.396H203.17V447.296H204.346V449.396Z" fill="white"/>
</svg>
